<svg width="26" height="26" viewBox="0 0 26 26" fill="none" xmlns="http://www.w3.org/2000/svg">
<path fill-rule="evenodd" clip-rule="evenodd" d="M9.08098 17.704H16.919C17.3524 17.704 17.704 17.3524 17.704 16.919V9.08104C17.704 8.64765 17.3524 8.29602 16.919 8.29602H9.08098C8.64758 8.29602 8.29596 8.64765 8.29596 9.08104V16.919C8.29596 17.3524 8.64758 17.704 9.08098 17.704ZM9.86601 9.86607H16.1339V16.134H9.86601V9.86607Z" fill="#3F6DD6"/>
<path fill-rule="evenodd" clip-rule="evenodd" d="M22.1831 4.60188C22.1831 4.16848 21.8315 3.81685 21.3981 3.81685H19.3834V0H17.8134V3.81685H13.785V0H12.215V3.81685H8.18662V0H6.61657V3.81685H4.60188C4.16848 3.81685 3.81685 4.16848 3.81685 4.60188V6.61657H0V8.18662H3.81685V12.215H0V13.785H3.81685V17.8134H0V19.3834H3.81685V21.3981C3.81685 21.8315 4.16848 22.1831 4.60188 22.1831H6.61657V26H8.18662V22.1831H12.215V26H13.785V22.1831H17.8134V26H19.3834V22.1831H21.3981C21.8315 22.1831 22.1831 21.8315 22.1831 21.3981V19.3834H26V17.8134H22.1831V13.785H26V12.215H22.1831V8.18662H26V6.61657H22.1831V4.60188ZM20.6131 20.6131H5.3869V5.3869H20.6131V20.6131Z" fill="#3F6DD6"/>
</svg>
