<svg width="26" height="26" viewBox="0 0 26 26" fill="none" xmlns="http://www.w3.org/2000/svg">
<g clip-path="url(#clip0_0_524)">
<rect x="0.75" y="0.75" width="24.5" height="24.5" rx="2.25" stroke="#3F6DD6" stroke-width="1.5"/>
<path d="M9.28638 18.096C8.43838 18.096 7.67438 17.912 6.99438 17.544C6.31438 17.168 5.77838 16.652 5.38638 15.996C5.00238 15.34 4.81038 14.608 4.81038 13.8C4.81038 12.992 5.00238 12.26 5.38638 11.604C5.77838 10.948 6.31438 10.436 6.99438 10.068C7.67438 9.692 8.43838 9.504 9.28638 9.504C10.1264 9.504 10.8864 9.692 11.5664 10.068C12.2464 10.436 12.7784 10.948 13.1624 11.604C13.5464 12.252 13.7384 12.984 13.7384 13.8C13.7384 14.616 13.5464 15.352 13.1624 16.008C12.7784 16.656 12.2464 17.168 11.5664 17.544C10.8864 17.912 10.1264 18.096 9.28638 18.096ZM9.28638 17.028C9.90238 17.028 10.4544 16.888 10.9424 16.608C11.4384 16.328 11.8264 15.944 12.1064 15.456C12.3944 14.96 12.5384 14.408 12.5384 13.8C12.5384 13.192 12.3944 12.644 12.1064 12.156C11.8264 11.66 11.4384 11.272 10.9424 10.992C10.4544 10.712 9.90238 10.572 9.28638 10.572C8.67038 10.572 8.11038 10.712 7.60638 10.992C7.11038 11.272 6.71838 11.66 6.43038 12.156C6.15038 12.644 6.01038 13.192 6.01038 13.8C6.01038 14.408 6.15038 14.96 6.43038 15.456C6.71838 15.944 7.11038 16.328 7.60638 16.608C8.11038 16.888 8.67038 17.028 9.28638 17.028ZM18.0205 18.096C17.3885 18.096 16.7765 18 16.1845 17.808C15.6005 17.608 15.1405 17.352 14.8045 17.04L15.2485 16.104C15.5685 16.392 15.9765 16.628 16.4725 16.812C16.9765 16.988 17.4925 17.076 18.0205 17.076C18.7165 17.076 19.2365 16.96 19.5805 16.728C19.9245 16.488 20.0965 16.172 20.0965 15.78C20.0965 15.492 20.0005 15.26 19.8085 15.084C19.6245 14.9 19.3925 14.76 19.1125 14.664C18.8405 14.568 18.4525 14.46 17.9485 14.34C17.3165 14.188 16.8045 14.036 16.4125 13.884C16.0285 13.732 15.6965 13.5 15.4165 13.188C15.1445 12.868 15.0085 12.44 15.0085 11.904C15.0085 11.456 15.1245 11.052 15.3565 10.692C15.5965 10.332 15.9565 10.044 16.4365 9.828C16.9165 9.612 17.5125 9.504 18.2245 9.504C18.7205 9.504 19.2085 9.568 19.6885 9.696C20.1685 9.824 20.5805 10.008 20.9245 10.248L20.5285 11.208C20.1765 10.984 19.8005 10.816 19.4005 10.704C19.0005 10.584 18.6085 10.524 18.2245 10.524C17.5445 10.524 17.0325 10.648 16.6885 10.896C16.3525 11.144 16.1845 11.464 16.1845 11.856C16.1845 12.144 16.2805 12.38 16.4725 12.564C16.6645 12.74 16.9005 12.88 17.1805 12.984C17.4685 13.08 17.8565 13.184 18.3445 13.296C18.9765 13.448 19.4845 13.6 19.8685 13.752C20.2525 13.904 20.5805 14.136 20.8525 14.448C21.1325 14.76 21.2725 15.18 21.2725 15.708C21.2725 16.148 21.1525 16.552 20.9125 16.92C20.6725 17.28 20.3085 17.568 19.8205 17.784C19.3325 17.992 18.7325 18.096 18.0205 18.096Z" fill="#3F6DD6"/>
</g>
<defs>
<clipPath id="clip0_0_524">
<rect width="26" height="26" fill="white"/>
</clipPath>
</defs>
</svg>
