<svg width="35" height="20" viewBox="0 0 35 20" fill="none" xmlns="http://www.w3.org/2000/svg">
<path fill-rule="evenodd" clip-rule="evenodd" d="M17.1154 5.38462C17.1154 4.88462 16.6923 4.46155 16.1923 4.46155H4.65385C4.15385 4.46155 3.73077 4.88462 3.73077 5.38462C3.73077 5.88462 4.15385 6.3077 4.65385 6.3077H16.1923C16.7308 6.3077 17.1154 5.88462 17.1154 5.38462Z" fill="#3F6DD6"/>
<path fill-rule="evenodd" clip-rule="evenodd" d="M15.6154 9.80766C15.6154 9.30766 15.1923 8.88458 14.6923 8.88458H8.61538C8.11538 8.88458 7.69231 9.30766 7.69231 9.80766C7.69231 10.3077 8.11538 10.7307 8.61538 10.7307H14.6923C15.2308 10.7307 15.6154 10.3077 15.6154 9.80766Z" fill="#3F6DD6"/>
<path fill-rule="evenodd" clip-rule="evenodd" d="M24.6538 0.0384521H0.923077C0.423077 0.0384521 0 0.461529 0 0.961529C0 1.46153 0.423077 1.88461 0.923077 1.88461H24.6923C29.1923 1.88461 32.8077 5.53845 32.8077 9.99999C32.8077 14.4615 29.1538 18.1154 24.6923 18.1154C21.6538 18.1154 18.8846 16.4231 17.4615 13.7308C17.3077 13.4231 17 13.2308 16.6538 13.2308H11.9231C11.4231 13.2308 11 13.6538 11 14.1538C11 14.6538 11.4231 15.0769 11.9231 15.0769H16.0769C17.8462 18.1154 21.1154 20 24.6538 20C30.1538 19.9615 34.6154 15.5 34.6154 9.99999C34.6154 4.49999 30.1538 0.0384521 24.6538 0.0384521Z" fill="#3F6DD6"/>
<path fill-rule="evenodd" clip-rule="evenodd" d="M24.6538 3.5C24.1154 3.5 23.6538 3.96154 23.6538 4.5V10.1923C23.6538 10.2692 23.6538 10.3077 23.6538 10.3846C23.6538 10.4615 23.6923 10.5 23.6923 10.5769C23.7308 10.6154 23.7308 10.6923 23.7692 10.7308C23.8077 10.7692 23.8462 10.8462 23.8846 10.8846L26.4231 13.4231C26.6154 13.6154 26.8846 13.7308 27.1154 13.7308C27.3846 13.7308 27.6154 13.6154 27.8077 13.4231C28.1923 13.0385 28.1923 12.3846 27.8077 12L25.5385 9.73077V4.5C25.6538 3.96154 25.2308 3.5 24.6538 3.5Z" fill="#3F6DD6"/>
</svg>
