<svg width="32" height="22" viewBox="0 0 32 22" fill="none" xmlns="http://www.w3.org/2000/svg">
<path fill-rule="evenodd" clip-rule="evenodd" d="M28.0383 16.4562C28.0383 16.8958 27.7015 17.2526 27.2866 17.2526H21.4348C21.0195 17.2526 20.6831 16.8958 20.6831 16.4562C20.6831 16.0166 21.0195 15.6598 21.4348 15.6598H27.2866C27.7015 15.6598 28.0383 16.0166 28.0383 16.4562ZM30.4966 18.9067C30.4966 19.7338 29.8619 20.4072 29.0812 20.4072H2.91989C2.1389 20.4072 1.50335 19.7338 1.50335 18.9067V14.0052C1.50335 13.1782 2.1389 12.5048 2.91989 12.5048H29.0812C29.8619 12.5048 30.4966 13.1782 30.4966 14.0052V18.9067ZM7.95123 1.8624C7.96063 1.84488 7.96928 1.82736 7.97717 1.80984C8.07376 1.67286 8.22259 1.59282 8.38683 1.59282H23.6143C23.7767 1.59282 23.9289 1.67525 24.0247 1.81143C24.0326 1.82855 24.0409 1.84568 24.0503 1.8624L28.9659 10.912H3.03527L7.95123 1.8624ZM31.2776 11.9744L25.3984 1.15041C25.3856 1.11975 25.3717 1.08989 25.3556 1.06082C24.9959 0.406169 24.3291 0 23.6143 0H8.38683C7.67236 0 7.00563 0.406169 6.64557 1.06002C6.62904 1.09028 6.61475 1.12095 6.60198 1.15201L0.723865 11.9732C0.274738 12.5172 0 13.2272 0 14.0052V18.9067C0 20.6127 1.3098 22 2.91989 22H29.0812C30.691 22 32 20.6127 32 18.9067V14.0052C32 13.228 31.7264 12.5184 31.2776 11.9744Z" fill="#3F6DD6"/>
</svg>
