<svg width="48" height="52" viewBox="0 0 48 52" fill="none" xmlns="http://www.w3.org/2000/svg">
<path id="icon" fill-rule="evenodd" clip-rule="evenodd" d="M4.10323 51.0968H26.7871C29.0323 51.0968 30.8903 49.2387 30.8903 46.9935V4.10323C30.8903 1.85806 29.0323 0 26.7871 0H4.10323C1.85806 0 0 1.85806 0 4.10323V46.9161C0 49.2387 1.85806 51.0968 4.10323 51.0968ZM3.09677 4.10323C3.09677 3.56129 3.56129 3.09677 4.10323 3.09677H26.7871C27.329 3.09677 27.7935 3.56129 27.7935 4.10323V46.9161C27.7935 47.4581 27.329 47.9226 26.7871 47.9226H4.10323C3.56129 47.9226 3.09677 47.4581 3.09677 46.9161V4.10323ZM7.12258 8.51613C7.12258 7.66452 7.81935 6.96774 8.67097 6.96774H22.2194C23.071 6.96774 23.7677 7.66452 23.7677 8.51613C23.7677 9.36774 23.071 10.0645 22.2194 10.0645H8.67097C7.81935 10.0645 7.12258 9.36774 7.12258 8.51613ZM7.12258 15.4839C7.12258 14.6323 7.81935 13.9355 8.67097 13.9355H22.2194C23.071 13.9355 23.7677 14.6323 23.7677 15.4839C23.7677 16.3355 23.071 17.0323 22.2194 17.0323H8.67097C7.81935 17.0323 7.12258 16.3355 7.12258 15.4839ZM7.12258 22.4516C7.12258 21.6 7.81935 20.9032 8.67097 20.9032H22.2194C23.071 20.9032 23.7677 21.6 23.7677 22.4516C23.7677 23.3032 23.071 24 22.2194 24H8.67097C7.81935 24 7.12258 23.3032 7.12258 22.4516ZM23.8452 43.3548C23.8452 44.2065 23.1484 44.9032 22.2968 44.9032H20.9032C20.0516 44.9032 19.3548 44.2065 19.3548 43.3548C19.3548 42.5032 20.0516 41.8064 20.9032 41.8064H22.2968C23.1484 41.8064 23.8452 42.5032 23.8452 43.3548ZM38.5548 41.8065C37.7032 41.8065 37.0065 41.1097 37.0065 40.2581C37.0065 39.4065 37.7032 38.7097 38.5548 38.7097H39.9484C40.8 38.7097 41.4968 39.4065 41.4968 40.2581C41.4968 41.1097 40.8 41.8065 39.9484 41.8065H38.5548ZM33.3677 5.41935C33.3677 4.56774 34.0645 3.87097 34.9161 3.87097H43.8968C46.1419 3.87097 48 5.72903 48 7.97419V43.0452C48 45.2903 46.1419 47.1484 43.8968 47.1484H34.9161C34.0645 47.1484 33.3677 46.4516 33.3677 45.6C33.3677 44.7484 34.0645 44.0516 34.9161 44.0516H43.8968C44.4387 44.0516 44.9032 43.5871 44.9032 43.0452V7.97419C44.9032 7.43226 44.4387 6.96774 43.8968 6.96774H34.9161C34.0645 6.96774 33.3677 6.27097 33.3677 5.41935ZM33.2903 13.1613C33.2903 12.3097 33.9871 11.6129 34.8387 11.6129H39.871C40.7226 11.6129 41.4194 12.3097 41.4194 13.1613C41.4194 14.0129 40.7226 14.7097 39.871 14.7097H34.8387C33.9871 14.7097 33.2903 14.0129 33.2903 13.1613ZM33.2903 19.3548C33.2903 18.5032 33.9871 17.8065 34.8387 17.8065H39.871C40.7226 17.8065 41.4194 18.5032 41.4194 19.3548C41.4194 20.2065 40.7226 20.9032 39.871 20.9032H34.8387C33.9871 20.9032 33.2903 20.2065 33.2903 19.3548ZM33.2903 25.5484C33.2903 24.6968 33.9871 24 34.8387 24H39.871C40.7226 24 41.4194 24.6968 41.4194 25.5484C41.4194 26.4 40.7226 27.0968 39.871 27.0968H34.8387C33.9871 27.0968 33.2903 26.4 33.2903 25.5484Z" fill="#3F6DD6"/>
</svg>
