<svg width="131" height="171" viewBox="0 0 131 171" fill="none" xmlns="http://www.w3.org/2000/svg">
<path fill-rule="evenodd" clip-rule="evenodd" d="M1.24411 47.779L92.6199 0L92.8695 0.130715L183.998 47.7799L184.5 47.5185V48.0413L185 48.3037L184.5 48.566V75.6485L184.248 75.7801L93.1231 123.428V123.952L92.6229 123.69L92.1208 123.952V123.427L0.74296 75.6476V48.5651L0.241809 48.3027L0.74296 48.0413V47.5166L1.24411 47.779ZM92.6199 1.04753L2.24541 48.3027L92.6219 95.5589L182.995 48.3037L92.6199 1.04753ZM1.74526 49.0889V75.1238L92.1208 122.379V96.345L45.642 72.042L1.74526 49.0889ZM183.497 49.0907L93.1231 96.345V122.379L183.497 75.1247V49.0907ZM92.6194 13.715L27.2132 47.9518L92.6214 82.1895L158.029 47.9527L92.6194 13.715ZM92.6194 12.6666L92.8699 12.7975L160.033 47.9527L92.6214 83.2379L92.3709 83.1071L25.2091 47.9518L92.6194 12.6666ZM7.23495 61.2914L85.1284 102.203V109.707L7.23495 68.7958V61.2914ZM6.23397 69.3212L86.1294 111.285V101.677L6.23397 59.7142V69.3212ZM106.106 105.192L169.018 72.3167V68.5222L106.106 101.397V105.192ZM105.105 100.874L170.02 66.9522V72.8398L105.105 106.762V100.874ZM183.16 122.333L92.6254 169.432V143.483L183.16 96.3835V122.333ZM91.6213 169.432L1.08442 122.332V96.3826L45.0586 119.259L91.6213 143.484V169.432ZM184.164 95.3385V95.2815C184.015 95.2074 183.868 95.1304 183.739 95.0382L183.662 95.078L170.928 88.4533C170.584 88.6261 170.236 88.7935 169.883 88.9537L182.658 95.6L92.1234 142.699L1.58646 95.5991L14.0442 89.1174C13.9179 89.0447 13.7912 88.9722 13.6643 88.8997L13.6627 88.8988C13.4713 88.7894 13.2798 88.6799 13.0893 88.5691L1.24005 94.7342C1.21787 94.7571 1.19762 94.7811 1.17744 94.8051L1.17738 94.8052C1.14734 94.8409 1.11742 94.8765 1.08141 94.9079C0.882854 95.0816 0.676196 95.2469 0.469539 95.4122L0.469502 95.4123L0.469437 95.4123L0.469321 95.4124C0.312364 95.5379 0.155409 95.6635 0.00200818 95.7927C0.00150698 95.7968 0.00125596 95.8011 0.00100536 95.8054L0.00100409 95.8054L0.00100283 95.8054C0.000752224 95.8097 0.000501202 95.814 0 95.8181L0.0803273 95.8597V122.854L91.6213 170.477V171L92.1234 170.739L92.6254 171V170.477L183.913 122.986L184.164 122.855V95.8615L184.307 95.7873C184.289 95.657 184.285 95.5303 184.286 95.4019L184.164 95.3385ZM26.1101 95.2667L26.2248 95.3137C26.3188 95.3815 26.4197 95.4408 26.5206 95.5002L26.5207 95.5003L26.5209 95.5004C26.5599 95.5234 26.5989 95.5463 26.6374 95.5697L26.5812 95.5987L92.1233 129.696L157.652 95.605C158.03 95.4521 158.403 95.2947 158.77 95.1309L159.671 95.5996L92.1233 130.74L91.8722 130.61L24.573 95.5987L25.6113 95.0585C25.7763 95.1299 25.9433 95.1983 26.1101 95.2667ZM7.28508 108.511L85.4205 149.159V156.615L7.28508 115.967V108.511ZM6.28099 116.489L86.4245 158.183V148.637L6.28099 106.944V116.489ZM106.357 151.9L169.43 119.087V115.3L106.357 148.112V151.9ZM105.352 147.59L170.434 113.732V119.609L105.352 153.467V147.59Z" fill="#D7DDEA"/>
</svg>
