<svg width="184" height="40" viewBox="0 0 184 40" fill="none" xmlns="http://www.w3.org/2000/svg">
<rect x="0.5" y="0.5" width="39" height="39" rx="19.5" stroke="#D7DDEA"/>
<path fill-rule="evenodd" clip-rule="evenodd" d="M18.7687 21.2297C20.3522 22.8119 22.1867 24.3261 22.912 23.601C23.9493 22.5639 24.5895 21.6598 26.8782 23.499C29.166 25.3372 27.4084 26.5633 26.4031 27.5674C25.2427 28.7276 20.9173 27.6295 16.642 23.356C12.3676 19.0815 11.2723 14.757 12.4337 13.5968C13.439 12.5907 14.6594 10.8345 16.4979 13.1218C18.3375 15.4091 17.4342 16.0491 16.3949 17.0872C15.6727 17.8123 17.1862 19.6465 18.7687 21.2297Z" fill="#FFCD2D"/>
<path d="M56.1035 20.6729H53.3828V19.4561H56.1035V16.667H57.334V19.4561H60.0615V20.6729H57.334V23.4482H56.1035V20.6729ZM63.4746 25L67.4258 16.4346H62.2305V15.0195H69.1416V16.1406L65.2109 25H63.4746ZM83.1045 22.8193H81.7578V25H80.1924V22.8193H75.626V21.582L80.1924 14.9785H81.7578V21.4863H83.1045V22.8193ZM80.1924 21.4863V18.9775C80.1924 18.0843 80.2152 17.3529 80.2607 16.7832H80.2061C80.0785 17.084 79.8779 17.4486 79.6045 17.877L77.123 21.4863H80.1924ZM91.7334 19.2715C91.7334 21.2402 91.3369 22.71 90.5439 23.6807C89.751 24.6514 88.557 25.1367 86.9619 25.1367C86.3558 25.1367 85.9206 25.1003 85.6562 25.0273V23.6807C86.0618 23.7946 86.4697 23.8516 86.8799 23.8516C87.9645 23.8516 88.7734 23.5599 89.3066 22.9766C89.8398 22.3932 90.1315 21.4772 90.1816 20.2285H90.0996C89.8307 20.6387 89.5049 20.9349 89.1221 21.1172C88.7438 21.2995 88.2995 21.3906 87.7891 21.3906C86.9049 21.3906 86.21 21.1149 85.7041 20.5635C85.1982 20.012 84.9453 19.2555 84.9453 18.2939C84.9453 17.2503 85.237 16.4209 85.8203 15.8057C86.4082 15.1859 87.208 14.876 88.2197 14.876C88.9307 14.876 89.5505 15.0492 90.0791 15.3955C90.6077 15.7419 91.0156 16.2454 91.3027 16.9062C91.5898 17.5625 91.7334 18.3509 91.7334 19.2715ZM88.2471 16.209C87.6911 16.209 87.265 16.3913 86.9688 16.7559C86.6725 17.1159 86.5244 17.624 86.5244 18.2803C86.5244 18.8499 86.6611 19.2988 86.9346 19.627C87.2126 19.9505 87.6318 20.1123 88.1924 20.1123C88.7347 20.1123 89.1904 19.9505 89.5596 19.627C89.9287 19.3034 90.1133 18.9251 90.1133 18.4922C90.1133 18.0866 90.0335 17.7083 89.874 17.3574C89.7191 17.002 89.5003 16.7217 89.2178 16.5166C88.9352 16.3115 88.6117 16.209 88.2471 16.209ZM97.3613 18.7588C98.3685 18.7588 99.166 19.0254 99.7539 19.5586C100.342 20.0918 100.636 20.8187 100.636 21.7393C100.636 22.8057 100.301 23.6396 99.6309 24.2412C98.9655 24.8382 98.0176 25.1367 96.7871 25.1367C95.6706 25.1367 94.7933 24.9567 94.1553 24.5967V23.1406C94.5244 23.3503 94.9482 23.512 95.4268 23.626C95.9053 23.7399 96.3496 23.7969 96.7598 23.7969C97.4844 23.7969 98.0358 23.6351 98.4141 23.3115C98.7923 22.988 98.9814 22.514 98.9814 21.8896C98.9814 20.6956 98.2204 20.0986 96.6982 20.0986C96.484 20.0986 96.2197 20.1214 95.9053 20.167C95.5908 20.208 95.3151 20.2559 95.0781 20.3105L94.3604 19.8867L94.7432 15.0059H99.9385V16.4346H96.1582L95.9326 18.9092C96.0921 18.8818 96.2858 18.8499 96.5137 18.8135C96.7461 18.777 97.0286 18.7588 97.3613 18.7588ZM107.633 20.7412C107.633 16.8311 109.226 14.876 112.411 14.876C112.912 14.876 113.336 14.9147 113.683 14.9922V16.332C113.336 16.2318 112.935 16.1816 112.479 16.1816C111.409 16.1816 110.604 16.4688 110.066 17.043C109.529 17.6172 109.237 18.5378 109.191 19.8047H109.273C109.488 19.4355 109.788 19.1507 110.176 18.9502C110.563 18.7451 111.019 18.6426 111.543 18.6426C112.45 18.6426 113.156 18.9206 113.662 19.4766C114.168 20.0326 114.421 20.7868 114.421 21.7393C114.421 22.7874 114.127 23.6169 113.539 24.2275C112.956 24.8337 112.158 25.1367 111.146 25.1367C110.431 25.1367 109.809 24.9658 109.28 24.624C108.752 24.2777 108.344 23.7764 108.057 23.1201C107.774 22.4593 107.633 21.6663 107.633 20.7412ZM111.119 23.8105C111.671 23.8105 112.094 23.6328 112.391 23.2773C112.691 22.9219 112.842 22.4137 112.842 21.7529C112.842 21.1787 112.701 20.7275 112.418 20.3994C112.14 20.0713 111.721 19.9072 111.16 19.9072C110.814 19.9072 110.495 19.9824 110.203 20.1328C109.911 20.2786 109.681 20.4814 109.513 20.7412C109.344 20.9964 109.26 21.2585 109.26 21.5273C109.26 22.1699 109.433 22.7122 109.779 23.1543C110.13 23.5918 110.577 23.8105 111.119 23.8105ZM123.733 22.8193H122.387V25H120.821V22.8193H116.255V21.582L120.821 14.9785H122.387V21.4863H123.733V22.8193ZM120.821 21.4863V18.9775C120.821 18.0843 120.844 17.3529 120.89 16.7832H120.835C120.707 17.084 120.507 17.4486 120.233 17.877L117.752 21.4863H120.821ZM132.731 22.8193H131.385V25H129.819V22.8193H125.253V21.582L129.819 14.9785H131.385V21.4863H132.731V22.8193ZM129.819 21.4863V18.9775C129.819 18.0843 129.842 17.3529 129.888 16.7832H129.833C129.705 17.084 129.505 17.4486 129.231 17.877L126.75 21.4863H129.819ZM134.477 21.9307V20.5635H137.99V21.9307H134.477ZM146.886 20.0029C146.886 21.7393 146.605 23.029 146.045 23.8721C145.489 24.7152 144.637 25.1367 143.488 25.1367C142.376 25.1367 141.533 24.7015 140.959 23.8311C140.385 22.9606 140.098 21.6846 140.098 20.0029C140.098 18.2393 140.376 16.9404 140.932 16.1064C141.492 15.2679 142.344 14.8486 143.488 14.8486C144.605 14.8486 145.45 15.2861 146.024 16.1611C146.599 17.0361 146.886 18.3167 146.886 20.0029ZM141.725 20.0029C141.725 21.3656 141.864 22.3385 142.142 22.9219C142.424 23.5052 142.873 23.7969 143.488 23.7969C144.104 23.7969 144.552 23.5007 144.835 22.9082C145.122 22.3158 145.266 21.3473 145.266 20.0029C145.266 18.6631 145.122 17.6947 144.835 17.0977C144.552 16.4961 144.104 16.1953 143.488 16.1953C142.873 16.1953 142.424 16.4893 142.142 17.0771C141.864 17.665 141.725 18.6403 141.725 20.0029ZM156.239 22.8193H154.893V25H153.327V22.8193H148.761V21.582L153.327 14.9785H154.893V21.4863H156.239V22.8193ZM153.327 21.4863V18.9775C153.327 18.0843 153.35 17.3529 153.396 16.7832H153.341C153.213 17.084 153.013 17.4486 152.739 17.877L150.258 21.4863H153.327ZM157.984 21.9307V20.5635H161.498V21.9307H157.984ZM170.394 20.0029C170.394 21.7393 170.113 23.029 169.553 23.8721C168.997 24.7152 168.145 25.1367 166.996 25.1367C165.884 25.1367 165.041 24.7015 164.467 23.8311C163.893 22.9606 163.605 21.6846 163.605 20.0029C163.605 18.2393 163.883 16.9404 164.439 16.1064C165 15.2679 165.852 14.8486 166.996 14.8486C168.113 14.8486 168.958 15.2861 169.532 16.1611C170.106 17.0361 170.394 18.3167 170.394 20.0029ZM165.232 20.0029C165.232 21.3656 165.371 22.3385 165.649 22.9219C165.932 23.5052 166.381 23.7969 166.996 23.7969C167.611 23.7969 168.06 23.5007 168.343 22.9082C168.63 22.3158 168.773 21.3473 168.773 20.0029C168.773 18.6631 168.63 17.6947 168.343 17.0977C168.06 16.4961 167.611 16.1953 166.996 16.1953C166.381 16.1953 165.932 16.4893 165.649 17.0771C165.371 17.665 165.232 18.6403 165.232 20.0029ZM179.747 22.8193H178.4V25H176.835V22.8193H172.269V21.582L176.835 14.9785H178.4V21.4863H179.747V22.8193ZM176.835 21.4863V18.9775C176.835 18.0843 176.858 17.3529 176.903 16.7832H176.849C176.721 17.084 176.521 17.4486 176.247 17.877L173.766 21.4863H176.835Z" fill="#282828"/>
</svg>
