<svg width="29" height="26" viewBox="0 0 29 26" fill="none" xmlns="http://www.w3.org/2000/svg">
<path fill-rule="evenodd" clip-rule="evenodd" d="M15.5161 0C9.35782 0 4.19233 4.30701 2.85685 10.0645H0L3.35484 14.2581L6.70968 10.0645H4.57359C5.86593 5.23062 10.2705 1.67742 15.5161 1.67742C21.7794 1.67742 26.8387 6.73681 26.8387 13C26.8387 19.2632 21.7794 24.3226 15.5161 24.3226C11.269 24.3226 7.57287 22.0072 5.63508 18.5565L4.27218 19.5C6.52316 23.3818 10.7139 26 15.5161 26C22.6859 26 28.5161 20.1697 28.5161 13C28.5161 5.83027 22.6859 0 15.5161 0ZM11.7419 14.6774H16.3548H17.1935V13.8387V8.38706V7.54836H15.5161V8.38706V13H11.7419V14.6774Z" fill="#3F6DD6"/>
</svg>
