<svg width="30" height="30" viewBox="0 0 30 30" fill="none" xmlns="http://www.w3.org/2000/svg">
<path fill-rule="evenodd" clip-rule="evenodd" d="M16.2438 2.8887L12.1651 0.117918C11.9588 -0.0233996 11.6911 -0.0388463 11.4699 0.0777915C11.2486 0.194429 11.1101 0.423978 11.1101 0.674098V2.85837H5.37973C3.89043 2.85837 2.68311 4.06569 2.68311 5.555V9.4314H4.03142V5.555C4.03142 4.81034 4.63508 4.20668 5.37973 4.20668H11.1101V6.22915C11.1097 6.47873 11.2472 6.7081 11.4676 6.82533C11.6879 6.94256 11.955 6.92847 12.1618 6.7887L16.2404 4.00443C16.4253 3.87897 16.536 3.67003 16.536 3.44657C16.536 3.22311 16.4253 3.01417 16.2404 2.8887H16.2438ZM12.4516 4.94151V1.93814L14.6595 3.44488L12.4516 4.94151Z" fill="#3F6DD6"/>
<path fill-rule="evenodd" clip-rule="evenodd" d="M29.5044 11.7977C29.388 11.576 29.1582 11.4371 28.9078 11.437H26.7269V5.70669C26.7269 4.21738 25.5196 3.01006 24.0303 3.01006L20.1842 2.98309V4.33141H24.0606C24.8053 4.33141 25.4089 4.93507 25.4089 5.67972V11.4101H23.3865C23.1369 11.4097 22.9075 11.5472 22.7903 11.7676C22.673 11.9879 22.6871 12.255 22.8269 12.4617L25.5775 16.5674C25.7024 16.7522 25.9106 16.8632 26.1336 16.864C26.3561 16.864 26.5642 16.7542 26.6898 16.5707L29.4741 12.4921C29.6119 12.2841 29.6236 12.0169 29.5044 11.7977ZM26.1336 14.9898L24.637 12.7786H27.6404L26.1336 14.9898Z" fill="#3F6DD6"/>
<path fill-rule="evenodd" clip-rule="evenodd" d="M0.670727 18.4618H2.855V24.1921C2.855 25.6814 4.06232 26.8887 5.55163 26.8887H9.42803V25.5404H5.55163C4.80697 25.5404 4.20331 24.9367 4.20331 24.1921V18.4618H6.22578C6.47536 18.4621 6.70473 18.3246 6.82196 18.1043C6.93919 17.8839 6.9251 17.6168 6.78533 17.4101L4.00443 13.3314C3.87953 13.1466 3.6713 13.0356 3.44825 13.0348C3.22584 13.0348 3.01774 13.1445 2.89208 13.328L0.117918 17.4067C-0.0233996 17.6131 -0.0388463 17.8807 0.0777915 18.102C0.194429 18.3232 0.423978 18.4617 0.674098 18.4618H0.670727ZM3.45163 14.9089L4.94826 17.1202H1.94488L3.45163 14.9089Z" fill="#3F6DD6"/>
<path fill-rule="evenodd" clip-rule="evenodd" d="M23.8921 27.064C25.3814 27.064 26.5887 25.8567 26.5887 24.3674V20.491H25.2404V24.3674C25.2404 25.112 24.6367 25.7157 23.8921 25.7157H18.1617V23.6932C18.1621 23.4436 18.0246 23.2143 17.8042 23.097C17.5839 22.9798 17.3168 22.9939 17.1101 23.1337L13.0044 25.8943C12.8195 26.0198 12.7088 26.2287 12.7088 26.4522C12.7088 26.6757 12.8195 26.8846 13.0044 27.0101L17.0797 29.7809C17.2861 29.9222 17.5537 29.9376 17.775 29.821C17.9963 29.7043 18.1348 29.4748 18.1348 29.2247V27.0539H23.8651L23.8921 27.064ZM16.8134 27.9606L14.6056 26.4539L16.8168 24.9573L16.8134 27.9606Z" fill="#3F6DD6"/>
<path fill-rule="evenodd" clip-rule="evenodd" d="M16.6449 10.2303H12.5999C11.1106 10.2303 9.90332 11.4376 9.90332 12.9269V16.9719C9.90332 18.4612 11.1106 19.6685 12.5999 19.6685H16.6449C18.1342 19.6685 19.3415 18.4612 19.3415 16.9719V12.9269C19.3415 11.4376 18.1342 10.2303 16.6449 10.2303ZM17.9932 16.9719C17.9932 17.7165 17.3895 18.3202 16.6449 18.3202H12.5999C11.8553 18.3202 11.2516 17.7165 11.2516 16.9719V12.9269C11.2516 12.1823 11.8553 11.5786 12.5999 11.5786H16.6449C17.3895 11.5786 17.9932 12.1823 17.9932 12.9269V16.9719Z" fill="#3F6DD6"/>
<rect x="12.701" y="13.028" width="3.83933" height="3.83933" rx="1.91966" fill="#3F6DD6"/>
</svg>
