<svg width="145" height="22" viewBox="0 0 145 22" fill="none" xmlns="http://www.w3.org/2000/svg">
<path d="M5.088 20.08C4.27733 20.08 3.54667 19.8987 2.896 19.536C2.24533 19.1627 1.73333 18.6507 1.36 18C0.986667 17.3493 0.8 16.6133 0.8 15.792C0.8 14.9707 0.986667 14.2347 1.36 13.584C1.73333 12.9333 2.24533 12.4267 2.896 12.064C3.54667 11.7013 4.27733 11.52 5.088 11.52C5.89867 11.52 6.62933 11.7013 7.28 12.064C7.93067 12.4267 8.43733 12.9333 8.8 13.584C9.17333 14.2347 9.36 14.9707 9.36 15.792C9.36 16.6133 9.17333 17.3493 8.8 18C8.43733 18.6507 7.93067 19.1627 7.28 19.536C6.62933 19.8987 5.89867 20.08 5.088 20.08ZM5.088 19.072C5.68533 19.072 6.21867 18.9387 6.688 18.672C7.168 18.3947 7.54133 18.0053 7.808 17.504C8.07467 17.0027 8.208 16.432 8.208 15.792C8.208 15.152 8.07467 14.5813 7.808 14.08C7.54133 13.5787 7.168 13.1947 6.688 12.928C6.21867 12.6507 5.68533 12.512 5.088 12.512C4.49067 12.512 3.952 12.6507 3.472 12.928C3.00267 13.1947 2.62933 13.5787 2.352 14.08C2.08533 14.5813 1.952 15.152 1.952 15.792C1.952 16.432 2.08533 17.0027 2.352 17.504C2.62933 18.0053 3.00267 18.3947 3.472 18.672C3.952 18.9387 4.49067 19.072 5.088 19.072ZM17.3954 12.592H14.2114V20H13.0754V12.592H9.89138V11.584H17.3954V12.592ZM31.1877 0.399999V20H27.5477V3.452H23.4037V0.399999H31.1877ZM43.4198 8.492C45.2304 8.716 46.6118 9.332 47.5638 10.34C48.5158 11.348 48.9918 12.608 48.9918 14.12C48.9918 15.2587 48.7024 16.2947 48.1238 17.228C47.5451 18.1613 46.6678 18.908 45.4918 19.468C44.3344 20.0093 42.9158 20.28 41.2357 20.28C39.8358 20.28 38.4824 20.084 37.1758 19.692C35.8878 19.2813 34.7864 18.7213 33.8718 18.012L35.4398 15.184C36.1491 15.7813 37.0078 16.2573 38.0158 16.612C39.0424 16.948 40.0971 17.116 41.1798 17.116C42.4678 17.116 43.4758 16.8547 44.2038 16.332C44.9504 15.7907 45.3238 15.0627 45.3238 14.148C45.3238 13.2333 44.9691 12.524 44.2598 12.02C43.5691 11.4973 42.5051 11.236 41.0678 11.236H39.2758V8.744L43.7278 3.452H34.8238V0.399999H48.1798V2.836L43.4198 8.492ZM59.5486 20.28C57.9806 20.28 56.5806 19.888 55.3486 19.104C54.1166 18.3013 53.146 17.144 52.4366 15.632C51.7273 14.1013 51.3726 12.2907 51.3726 10.2C51.3726 8.10933 51.7273 6.308 52.4366 4.796C53.146 3.26533 54.1166 2.108 55.3486 1.324C56.5806 0.521332 57.9806 0.119999 59.5486 0.119999C61.1166 0.119999 62.5166 0.521332 63.7486 1.324C64.9993 2.108 65.9793 3.26533 66.6886 4.796C67.398 6.308 67.7526 8.10933 67.7526 10.2C67.7526 12.2907 67.398 14.1013 66.6886 15.632C65.9793 17.144 64.9993 18.3013 63.7486 19.104C62.5166 19.888 61.1166 20.28 59.5486 20.28ZM59.5486 17.116C60.9486 17.116 62.05 16.5373 62.8526 15.38C63.674 14.2227 64.0846 12.496 64.0846 10.2C64.0846 7.904 63.674 6.17733 62.8526 5.02C62.05 3.86267 60.9486 3.284 59.5486 3.284C58.1673 3.284 57.066 3.86267 56.2446 5.02C55.442 6.17733 55.0406 7.904 55.0406 10.2C55.0406 12.496 55.442 14.2227 56.2446 15.38C57.066 16.5373 58.1673 17.116 59.5486 17.116ZM83.9988 13.532V15.128H90.1588V17.088H83.9988V20H80.3588V17.088H77.5588V15.128H80.3588V0.399999H88.4228C91.0361 0.399999 93.0708 0.959999 94.5268 2.08C96.0014 3.2 96.7388 4.83333 96.7388 6.98C96.7388 9.108 96.0014 10.732 94.5268 11.852C93.0708 12.972 91.0361 13.532 88.4228 13.532H83.9988ZM93.0708 7.008C93.0708 5.86933 92.6694 5.00133 91.8668 4.404C91.0641 3.788 89.9068 3.48 88.3948 3.48H83.9988V10.592H88.3948C89.8881 10.592 91.0361 10.284 91.8388 9.668C92.6601 9.03333 93.0708 8.14667 93.0708 7.008ZM108.685 6.528H109.725L104.445 21.6H103.405L108.685 6.528ZM124.376 11.584V20H123.336V13.344L119.928 18.976H119.416L116.008 13.328V20H114.968V11.584H116.12L119.688 17.648L123.32 11.584H124.376ZM134.968 16.144H127.928C127.992 17.0187 128.328 17.728 128.936 18.272C129.544 18.8053 130.312 19.072 131.24 19.072C131.763 19.072 132.243 18.9813 132.68 18.8C133.118 18.608 133.496 18.3307 133.816 17.968L134.456 18.704C134.083 19.152 133.614 19.4933 133.048 19.728C132.494 19.9627 131.88 20.08 131.208 20.08C130.344 20.08 129.576 19.8987 128.904 19.536C128.243 19.1627 127.726 18.6507 127.352 18C126.979 17.3493 126.792 16.6133 126.792 15.792C126.792 14.9707 126.968 14.2347 127.32 13.584C127.683 12.9333 128.174 12.4267 128.792 12.064C129.422 11.7013 130.126 11.52 130.904 11.52C131.683 11.52 132.382 11.7013 133 12.064C133.619 12.4267 134.104 12.9333 134.456 13.584C134.808 14.224 134.984 14.96 134.984 15.792L134.968 16.144ZM130.904 12.496C130.094 12.496 129.411 12.7573 128.856 13.28C128.312 13.792 128.003 14.464 127.928 15.296H133.896C133.822 14.464 133.507 13.792 132.952 13.28C132.408 12.7573 131.726 12.496 130.904 12.496ZM141.019 20.08C140.187 20.08 139.44 19.8987 138.779 19.536C138.128 19.1733 137.616 18.6667 137.243 18.016C136.869 17.3547 136.683 16.6133 136.683 15.792C136.683 14.9707 136.869 14.2347 137.243 13.584C137.616 12.9333 138.128 12.4267 138.779 12.064C139.44 11.7013 140.187 11.52 141.019 11.52C141.744 11.52 142.389 11.664 142.955 11.952C143.531 12.2293 143.984 12.64 144.315 13.184L143.467 13.76C143.189 13.344 142.837 13.0347 142.411 12.832C141.984 12.6187 141.52 12.512 141.019 12.512C140.411 12.512 139.861 12.6507 139.371 12.928C138.891 13.1947 138.512 13.5787 138.235 14.08C137.968 14.5813 137.835 15.152 137.835 15.792C137.835 16.4427 137.968 17.0187 138.235 17.52C138.512 18.0107 138.891 18.3947 139.371 18.672C139.861 18.9387 140.411 19.072 141.019 19.072C141.52 19.072 141.984 18.9707 142.411 18.768C142.837 18.5653 143.189 18.256 143.467 17.84L144.315 18.416C143.984 18.96 143.531 19.376 142.955 19.664C142.379 19.9413 141.733 20.08 141.019 20.08Z" fill="#373633"/>
</svg>
